<svg width="52" height="52" viewBox="0 0 52 52" fill="none" xmlns="http://www.w3.org/2000/svg">
    <g clip-path="url(#clip0_2979_18697)">
    <path d="M33.3764 8.87923e-06C32.9764 0.0160089 32.5904 0.0880089 32.1884 0.188009L5.00045 6.81201C1.78445 7.60001 -0.227554 10.844 0.562446 14.062L4.37445 29.626C4.60544 30.5531 5.05521 31.4113 5.68608 32.1288C6.31695 32.8463 7.11056 33.4023 8.00045 33.75V30C8.00045 24.486 12.4864 20 18.0004 20H43.1884L39.4384 4.56201C39.1068 3.22005 38.3225 2.03351 37.2178 1.20247C36.1132 0.371436 34.7578 -0.0532559 33.3764 8.87923e-06ZM35.8124 8.62601L37.4384 15.438L30.6884 17.062L29.0004 10.312L35.8124 8.62601ZM18.0004 24C14.6884 24 12.0004 26.688 12.0004 30V46C12.0004 49.312 14.6884 52 18.0004 52H46.0004C49.3124 52 52.0004 49.312 52.0004 46V30C52.0004 26.688 49.3124 24 46.0004 24H18.0004ZM18.0004 27.188H46.0004C47.5424 27.188 48.8124 28.458 48.8124 30V32H15.1884V30C15.1884 28.458 16.4584 27.188 18.0004 27.188ZM15.1884 38H48.8124V46C48.8124 47.542 47.5424 48.812 46.0004 48.812H18.0004C17.256 48.8078 16.5431 48.5102 16.0167 47.9837C15.4903 47.4573 15.1926 46.7445 15.1884 46V38Z" fill="url(#paint0_linear_2979_18697)"/>
    </g>
    <defs>
    <linearGradient id="paint0_linear_2979_18697" x1="26.1955" y1="-0.00445557" x2="26.1955" y2="52" gradientUnits="userSpaceOnUse">
    <stop stop-color="#0DAE94"/>
    <stop offset="0.600962" stop-color="#184D61"/>
    <stop offset="1" stop-color="#1F0D3F"/>
    </linearGradient>
    <clipPath id="clip0_2979_18697">
    <rect width="52" height="52" fill="white"/>
    </clipPath>
    </defs>
    </svg>
    