<svg width="85" height="84" viewBox="0 0 85 84" fill="none" xmlns="http://www.w3.org/2000/svg">
    <g filter="url(#filter0_d_903_3819)">
        <rect x="10.5" y="6" width="64" height="64" rx="32" fill="#F40E0E" fill-opacity="0.2"
            shape-rendering="crispEdges" />
        <mask id="mask0_903_3819" style="mask-type:alpha" maskUnits="userSpaceOnUse" x="18" y="14"
            width="49" height="48">
            <rect x="18.5" y="14" width="48" height="48" fill="#D9D9D9" />
        </mask>
        <g mask="url(#mask0_903_3819)">
        </g>
        <path
            d="M58.6654 38C58.6654 47.2041 51.2029 54.6666 41.9987 54.6666C32.7945 54.6666 25.332 47.2041 25.332 38C25.332 28.7958 32.7945 21.3333 41.9987 21.3333C51.2029 21.3333 58.6654 28.7958 58.6654 38Z"
            fill="#F40E0E" />
        <path d="M46.713 30.93L49.0697 33.2867L37.2864 45.07L34.9297 42.7133L46.713 30.93Z"
            fill="#FCCECE" />
        <path d="M49.0697 42.7133L46.713 45.07L34.9297 33.2867L37.2864 30.93L49.0697 42.7133Z"
            fill="#FCCECE" />
    </g>
    <defs>
        <filter id="filter0_d_903_3819" x="0.5" y="0" width="84" height="84"
            filterUnits="userSpaceOnUse" color-interpolation-filters="sRGB">
            <feFlood flood-opacity="0" result="BackgroundImageFix" />
            <feColorMatrix in="SourceAlpha" type="matrix"
                values="0 0 0 0 0 0 0 0 0 0 0 0 0 0 0 0 0 0 127 0" result="hardAlpha" />
            <feOffset dy="4" />
            <feGaussianBlur stdDeviation="5" />
            <feComposite in2="hardAlpha" operator="out" />
            <feColorMatrix type="matrix" values="0 0 0 0 0 0 0 0 0 0 0 0 0 0 0 0 0 0 0.05 0" />
            <feBlend mode="normal" in2="BackgroundImageFix" result="effect1_dropShadow_903_3819" />
            <feBlend mode="normal" in="SourceGraphic" in2="effect1_dropShadow_903_3819"
                result="shape" />
        </filter>
    </defs>
</svg>
    